<svg width="39" height="39" viewBox="0 0 39 39" fill="none" xmlns="http://www.w3.org/2000/svg">
<path d="M13.2246 37.7105C-0.00816154 33.4768 -4.39522 16.5375 5.07582 6.24638C8.50059 2.52507 11.5047 0.978182 16.834 0.191708C26.7466 -1.27113 36.0699 5.78622 38.0985 16.288C39.4206 23.132 36.005 31.1334 29.9969 35.2671C25.3062 38.4944 18.6881 39.4585 13.2246 37.7105ZM25.1208 35.2112C34.2417 31.7986 38.6027 20.9745 34.4194 12.1318C29.9467 2.67726 18.6677 -0.613728 10.0173 5.01178C4.92698 8.32213 2.46066 12.9936 2.41324 19.4149C2.38913 22.6785 2.60572 23.7971 3.75415 26.3404C5.37902 29.9389 8.7247 33.2825 12.4236 35.0046C15.786 36.57 21.2513 36.659 25.1208 35.2112ZM18.449 30.0453C18.2759 27.998 18.1343 25.0696 18.1343 23.5379C18.1343 20.8079 18.1043 20.7468 16.6139 20.4488C15.7777 20.2816 13.424 20.1188 11.3836 20.0871C7.07861 20.0204 4.8 19.6173 4.83293 18.9283C4.85548 18.4567 26.5206 9.95309 27.7435 9.93591C28.078 9.93039 28.3532 10.201 28.3551 10.5355C28.357 10.87 26.5895 15.9604 24.4274 21.8476C22.2653 27.7347 20.4096 32.8251 20.3036 33.1596C20.1977 33.4941 19.8079 33.7678 19.4374 33.7678C18.9496 33.7678 18.6768 32.7405 18.449 30.0453Z" fill="#2B25AF"/>
</svg>
